<svg height="512" viewBox="0 0 58 58" width="512" xmlns="http://www.w3.org/2000/svg"><g id="Page-1" fill="none" fill-rule="evenodd"><g id="015---Alarm" fill="rgb(0,0,0)" fill-rule="nonzero" transform="translate(-1)"><path id="Shape" d="m46.172 20.586c-.3744135-.3765645-.8839785-.5875929-1.415-.586h-29.514c-.5310215-.0015929-1.0405865.2094355-1.415.586l-2.414 2.414h37.172z"/><rect id="Rectangle-path" height="5" rx="1" width="5" x="21" y="40"/><rect id="Rectangle-path" height="12" rx="1" width="5" x="45" y="33"/><rect id="Rectangle-path" height="12" rx="1" width="5" x="34" y="33"/><path id="Shape" d="m40.659 57.2c.0951286.4660347.5053558.8005727.981.8h9.72c.4756442.0005727.8858714-.3339653.981-.8l.439-2.2h-12.56z"/><path id="Shape" d="m54 25h-48c-2.209139 0-4 1.790861-4 4v20c0 2.209139 1.790861 4 4 4h48c2.209139 0 4-1.790861 4-4v-20c0-2.209139-1.790861-4-4-4zm2 24c0 1.1045695-.8954305 2-2 2h-48c-1.1045695 0-2-.8954305-2-2v-20c0-1.1045695.8954305-2 2-2h48c1.1045695 0 2 .8954305 2 2z"/><path id="Shape" d="m6 49h48v-20h-48zm37-15c0-1.6568542 1.3431458-3 3-3h3c1.6568542 0 3 1.3431458 3 3v10c0 1.6568542-1.3431458 3-3 3h-3c-1.6568542 0-3-1.3431458-3-3zm-11 0c0-1.6568542 1.3431458-3 3-3h3c1.6568542 0 3 1.3431458 3 3v10c0 1.6568542-1.3431458 3-3 3h-3c-1.6568542 0-3-1.3431458-3-3zm-2 1c.5522847 0 1 .4477153 1 1s-.4477153 1-1 1-1-.4477153-1-1 .4477153-1 1-1zm0 7c.5522847 0 1 .4477153 1 1s-.4477153 1-1 1-1-.4477153-1-1 .4477153-1 1-1zm-11-8c0-1.6568542 1.3431458-3 3-3h3c1.6568542 0 3 1.3431458 3 3 0 .5522847-.4477153 1-1 1s-1-.4477153-1-1-.4477153-1-1-1h-3c-.5522847 0-1 .4477153-1 1v4.171c.3212525-.1131876.6593909-.1710092 1-.171h3c1.6568542 0 3 1.3431458 3 3v3c0 1.6568542-1.3431458 3-3 3h-3c-1.6568542 0-3-1.3431458-3-3zm-11 0c0-1.6568542 1.34314575-3 3-3h3c1.6568542 0 3 1.3431458 3 3v10c0 1.6568542-1.3431458 3-3 3h-3c-1.65685425 0-3-1.3431458-3-3z"/><path id="Shape" d="m7.659 57.2c.09512857.4660347.50535578.8005727.981.8h9.72c.4756442.0005727.8858714-.3339653.981-.8l.439-2.2h-12.56z"/><rect id="Rectangle-path" height="12" rx="1" width="5" x="10" y="33"/><path id="Shape" d="m18 17c-.3088077.0002142-.6003921-.1422561-.79-.386l-6.377-8.2-4.208 3.367c-.22912819.1815037-.52581682.2544898-.813.2-.28674578-.0549637-.5351497-.2324994-.68-.486l-4-7c-.27476165-.47938316-.10888315-1.09073832.37050001-1.36549998s1.09073832-.10888317 1.36549999.37049998l3.42 5.985 4.087-3.27c.2090187-.16745788.4764753-.24407256.7424557-.21268124.2659803.03139132.5082526.16816482.6725443.37968124l7 9c.2370401.3015407.2807216.7120931.1124359 1.0567592s-.5188833.5627089-.9024359.5612408z"/><path id="Shape" d="m42 17c-.3820724.0002652-.7309032-.2172009-.8988735-.5603705-.1679702-.3431696-.1257191-.7520575.1088735-1.0536295l7-9c.1642869-.21113502.4063221-.34763998.672-.379.2656535-.03044253.532528.04580732.742.212l4.087 3.27 3.421-5.989c.2805182-.46500431.8808858-.62113239 1.3523981-.35169676.4715124.26943564.6418041.86594043.3836019 1.34369676l-4 7c-.1443463.2543883-.3935025.4322002-.681.486-.2868867.0551418-.5835409-.0179257-.812-.2l-4.208-3.364-6.377 8.2c-.1896079.2437439-.4811923.3862142-.79.386z"/><path id="Shape" d="m23 15c-.3808256.0020788-.7297741-.2123306-.9-.553l-6-12c-.2468713-.49429485-.0462949-1.09512872.448-1.342s1.0951287-.04629485 1.342.448l6 12c.1545455.3092668.1383796.6764236-.0427493.9709106-.1811288.294487-.5015228.4745236-.8472507.4760894z"/><path id="Shape" d="m37 15c-.3464401-.000185-.6681037-.1796678-.8501945-.4743943-.1820909-.2947265-.1986643-.6627032-.0438055-.9726057l6-12c.1596977-.3197527.4778505-.53001867.8346134-.55159274.3567628-.02157407.6979349.14882137.895.447.1970651.29817864.2200843.67884004.0603866.99859274l-6 12c-.1695854.3393743-.5166139.553556-.896.553z"/><path id="Shape" d="m30 14c-.5522847 0-1-.4477153-1-1v-12c0-.55228475.4477153-1 1-1s1 .44771525 1 1v12c0 .5522847-.4477153 1-1 1z"/></g></g></svg>